<svg xmlns="http://www.w3.org/2000/svg" xmlns:xlink="http://www.w3.org/1999/xlink" viewBox="328 328 3440 1096.5" preserveAspectRatio="xMidYMid meet"><defs id="SvgjsDefs49478"></defs><g id="SvgjsG49479" transform="translate(328, 328) scale(34.4)" opacity="1"><defs id="SvgjsDefs12633"></defs><g id="SvgjsG12634" transform="scale(0.21645021645021645)" opacity="1"><g id="SvgjsG12635" class="text" transform="translate(195.856005591434, 72.95273513806109) scale(1)" light-content="false" fill="#1d6cf0"><path d="M-47.83 -3.84C-44.93 -0.92 -40.88 0.54 -35.68 0.54C-30.49 0.54 -26.45 -0.92 -23.57 -3.84C-20.68 -6.76 -19.24 -10.95 -19.24 -16.39L-19.24 -37.62L-26.12 -37.62L-26.12 -16.66C-26.12 -9.28 -29.29 -5.59 -35.63 -5.59C-42.01 -5.59 -45.2 -9.28 -45.2 -16.66L-45.2 -37.62L-52.18 -37.62L-52.18 -16.39C-52.18 -10.95 -50.73 -6.76 -47.83 -3.84Z M29.34 -37.62L22.41 -37.62L22.41 -12.15L1.67 -37.62L-4.08 -37.62L-4.08 0L2.85 0L2.85 -25.47L23.59 0L29.34 0Z M44.82 -37.62L44.82 0L51.81 0L51.81 -37.62Z"></path></g><g id="SvgjsG12636" class="text" transform="translate(359.05437663047, 72.70506559972205) scale(1)" light-content="false" fill="#f3f7fc"><path d="M-97.38 -0.7C-94.68 0.13 -91.87 0.54 -88.97 0.54C-85.67 0.54 -82.88 0.04 -80.59 -0.97C-78.29 -1.97 -76.58 -3.31 -75.45 -5C-74.33 -6.68 -73.76 -8.56 -73.76 -10.64C-73.76 -13.08 -74.4 -15.01 -75.67 -16.45C-76.94 -17.88 -78.47 -18.94 -80.26 -19.64C-82.06 -20.34 -84.35 -21.01 -87.14 -21.66C-89.18 -22.16 -90.8 -22.61 -91.98 -23C-93.16 -23.4 -94.14 -23.93 -94.91 -24.61C-95.68 -25.29 -96.06 -26.17 -96.06 -27.25C-96.06 -28.79 -95.39 -30.02 -94.05 -30.96C-92.71 -31.89 -90.65 -32.35 -87.9 -32.35C-86.21 -32.35 -84.47 -32.1 -82.68 -31.6C-80.89 -31.1 -79.17 -30.36 -77.52 -29.4L-75.32 -34.82C-76.93 -35.9 -78.85 -36.72 -81.07 -37.3C-83.29 -37.87 -85.55 -38.16 -87.84 -38.16C-91.14 -38.16 -93.92 -37.66 -96.2 -36.65C-98.47 -35.65 -100.18 -34.3 -101.3 -32.59C-102.43 -30.89 -103 -29 -103 -26.92C-103 -24.45 -102.36 -22.49 -101.09 -21.04C-99.82 -19.59 -98.29 -18.52 -96.52 -17.84C-94.75 -17.16 -92.43 -16.48 -89.56 -15.8C-87.52 -15.3 -85.91 -14.85 -84.72 -14.46C-83.54 -14.06 -82.57 -13.52 -81.8 -12.82C-81.03 -12.12 -80.64 -11.23 -80.64 -10.16C-80.64 -8.69 -81.33 -7.51 -82.71 -6.61C-84.09 -5.71 -86.18 -5.27 -88.97 -5.27C-91.23 -5.27 -93.48 -5.65 -95.71 -6.42C-97.95 -7.19 -99.84 -8.19 -101.38 -9.4L-103.8 -3.98C-102.23 -2.62 -100.09 -1.52 -97.38 -0.7Z M-54.36 -31.71L-54.36 0L-47.37 0L-47.37 -31.71L-34.91 -31.71L-34.91 -37.62L-66.83 -37.62L-66.83 -31.71Z M-17.6 -1.96C-14.52 -0.3 -11.06 0.54 -7.23 0.54C-3.39 0.54 0.06 -0.3 3.14 -1.96C6.23 -3.63 8.64 -5.93 10.4 -8.87C12.15 -11.81 13.03 -15.12 13.03 -18.81C13.03 -22.5 12.15 -25.81 10.4 -28.75C8.64 -31.69 6.23 -33.99 3.14 -35.66C0.06 -37.32 -3.39 -38.16 -7.23 -38.16C-11.06 -38.16 -14.52 -37.32 -17.6 -35.66C-20.68 -33.99 -23.1 -31.68 -24.86 -28.73C-26.61 -25.77 -27.49 -22.46 -27.49 -18.81C-27.49 -15.16 -26.61 -11.85 -24.86 -8.89C-23.1 -5.94 -20.68 -3.63 -17.6 -1.96ZM-0.46 -7.28C-2.46 -6.15 -4.72 -5.59 -7.23 -5.59C-9.74 -5.59 -11.99 -6.15 -14 -7.28C-16.01 -8.41 -17.58 -9.99 -18.73 -12.01C-19.88 -14.04 -20.45 -16.3 -20.45 -18.81C-20.45 -21.32 -19.88 -23.58 -18.73 -25.61C-17.58 -27.63 -16.01 -29.21 -14 -30.34C-11.99 -31.47 -9.74 -32.03 -7.23 -32.03C-4.72 -32.03 -2.46 -31.47 -0.46 -30.34C1.55 -29.21 3.13 -27.63 4.27 -25.61C5.42 -23.58 5.99 -21.32 5.99 -18.81C5.99 -16.3 5.42 -14.04 4.27 -12.01C3.13 -9.99 1.55 -8.41 -0.46 -7.28Z M59.25 -37.62L52.32 -37.62L52.32 -12.15L31.57 -37.62L25.82 -37.62L25.82 0L32.76 0L32.76 -25.47L53.5 0L59.25 0Z M102.94 -5.86L81.71 -5.86L81.71 -16.23L99.88 -16.23L99.88 -21.98L81.71 -21.98L81.71 -31.76L102.19 -31.76L102.19 -37.62L74.73 -37.62L74.73 0L102.94 0Z"></path></g><g id="SvgjsG12637" class="text" transform="translate(252.096005591434, 118.06875061476359) scale(1)" light-content="false" fill="#cba15a"><path d="M-100.34 -1.72C-97.82 -0.34 -94.99 0.36 -91.85 0.36C-89.41 0.36 -87.16 -0.06 -85.11 -0.9C-83.07 -1.73 -81.33 -2.96 -79.9 -4.57L-82.81 -7.39C-85.2 -4.88 -88.14 -3.63 -91.63 -3.63C-93.96 -3.63 -96.06 -4.15 -97.94 -5.2C-99.83 -6.24 -101.3 -7.68 -102.36 -9.52C-103.42 -11.35 -103.95 -13.41 -103.95 -15.67C-103.95 -17.94 -103.42 -20 -102.36 -21.83C-101.3 -23.67 -99.83 -25.11 -97.94 -26.15C-96.06 -27.2 -93.96 -27.72 -91.63 -27.72C-88.11 -27.72 -85.17 -26.48 -82.81 -24L-79.9 -26.83C-81.33 -28.44 -83.06 -29.66 -85.09 -30.48C-87.12 -31.3 -89.36 -31.71 -91.81 -31.71C-94.94 -31.71 -97.78 -31.01 -100.32 -29.63C-102.86 -28.24 -104.84 -26.33 -106.27 -23.89C-107.71 -21.46 -108.42 -18.72 -108.42 -15.67C-108.42 -12.63 -107.71 -9.89 -106.27 -7.46C-104.84 -5.02 -102.86 -3.11 -100.34 -1.72Z M-49.8 -7.84L-46.35 0L-41.65 0L-55.89 -31.35L-60.33 -31.35L-74.52 0L-69.91 0L-66.46 -7.84ZM-51.37 -11.42L-64.89 -11.42L-58.13 -26.78Z M-10.7 -28.44C-13.03 -30.38 -16.23 -31.35 -20.29 -31.35L-32.51 -31.35L-32.51 0L-28.04 0L-28.04 -9.49L-20.29 -9.49C-16.23 -9.49 -13.03 -10.46 -10.7 -12.41C-8.37 -14.35 -7.21 -17.02 -7.21 -20.42C-7.21 -23.83 -8.37 -26.5 -10.7 -28.44ZM-13.93 -15.2C-15.42 -14 -17.59 -13.39 -20.42 -13.39L-28.04 -13.39L-28.04 -27.45L-20.42 -27.45C-17.59 -27.45 -15.42 -26.85 -13.93 -25.64C-12.44 -24.43 -11.69 -22.69 -11.69 -20.42C-11.69 -18.15 -12.44 -16.41 -13.93 -15.2Z M3.85 -31.35L3.85 0L8.33 0L8.33 -31.35Z M28.44 -27.45L28.44 0L32.87 0L32.87 -27.45L43.62 -27.45L43.62 -31.35L17.69 -31.35L17.69 -27.45Z M71.39 -7.84L74.84 0L79.54 0L65.3 -31.35L60.86 -31.35L46.67 0L51.28 0L54.73 -7.84ZM69.82 -11.42L56.29 -11.42L63.06 -26.78Z M88.67 -31.35L88.67 0L110.13 0L110.13 -3.9L93.15 -3.9L93.15 -31.35Z"></path></g><rect id="SvgjsRect12638" width="147.29833219562482" height="2.470964836787399" fill="#cba15a" transform="translate(52.713916518131185, 72.41368367941871) scale(1) rotate(90, 73.64916609781241, 1.2354824183936994)" light-content="false"></rect><g id="SvgjsG12639" class="8DDm4GUig" transform="translate(-4.3712902180818185, 18.602323157883237) scale(1.093370864169658)" light-content="false" non-strokable="false" fill="#1d6cf0"><path d="M95.129 41.891l-6.46-.82a39.372 39.372 0 0 0-4.981-12.13l3.949-5.109a1.01 1.01 0 0 0-.078-1.32l-10.07-10.07a.993.993 0 0 0-1.32-.078l-5.06 3.91a39.239 39.239 0 0 0-12.198-5.078l-.809-6.309a.992.992 0 0 0-.988-.87h-14.23c-.5 0-.93.37-.988.87l-.809 6.309a39.196 39.196 0 0 0-12.199 5.078l-5.059-3.91a1.01 1.01 0 0 0-1.32.078l-10.07 10.07a.993.993 0 0 0-.078 1.32l3.95 5.11A39.184 39.184 0 0 0 11.33 41.07l-6.461.82a.992.992 0 0 0-.871.988v14.23c0 .5.37.93.87.989l6.552.84c1 4.238 2.68 8.261 5.011 11.96l-4.078 5.27c-.308.398-.27.96.078 1.32l10.07 10.07c.36.36.922.39 1.32.078l5.32-4.12a39.15 39.15 0 0 0 11.892 4.91l.851 6.69c.06.5.489.872.989.872h14.23c.5 0 .93-.371.988-.871l.852-6.692a39.111 39.111 0 0 0 11.89-4.91l5.32 4.121c.4.309.962.27 1.321-.078l10.07-10.07c.36-.36.39-.922.078-1.32l-4.078-5.27a39.26 39.26 0 0 0 5.012-11.96l6.55-.84a.992.992 0 0 0 .872-.989V42.88c0-.5-.371-.93-.871-.988zM94 56.239l-6.371.809a1 1 0 0 0-.852.78 37.359 37.359 0 0 1-5.27 12.579c-.23.36-.21.82.052 1.16l3.969 5.14-8.82 8.82-5.18-4.01a.987.987 0 0 0-1.149-.052 37.53 37.53 0 0 1-12.512 5.172.987.987 0 0 0-.781.852l-.828 6.52h-12.47l-.827-6.52a1.002 1.002 0 0 0-.782-.852 37.088 37.088 0 0 1-12.512-5.172.986.986 0 0 0-1.148.051l-5.18 4.012-8.82-8.82 3.969-5.141c.261-.34.281-.8.05-1.16a37.06 37.06 0 0 1-5.269-12.578c-.09-.41-.43-.73-.852-.781l-6.37-.809V43.77l6.28-.8a.992.992 0 0 0 .852-.79c.93-4.531 2.7-8.82 5.23-12.75a.984.984 0 0 0-.05-1.148l-3.84-4.969 8.82-8.82 4.922 3.808a.985.985 0 0 0 1.16.04A37.234 37.234 0 0 1 42.231 13c.421-.09.73-.43.789-.852l.78-6.14h12.47l.781 6.14a1 1 0 0 0 .79.852 37.24 37.24 0 0 1 12.808 5.34c.36.23.82.21 1.16-.04l4.922-3.808 8.82 8.82-3.84 4.969a.987.987 0 0 0-.05 1.148 37.197 37.197 0 0 1 5.23 12.75c.09.422.43.738.852.79l6.281.8v12.469z"></path><path d="M50 21.32c-15.711 0-28.5 12.789-28.5 28.5 0 1.879.191 3.75.55 5.54C24.66 68.66 36.423 78.32 50 78.32c1.11 0 2.12-.058 3.058-.18a28.15 28.15 0 0 0 14.258-5.71c5.52-4.231 9.29-10.29 10.621-17.07.36-1.801.55-3.672.55-5.551 0-15.711-12.788-28.5-28.5-28.5zm-26.5 28.5c0-14.609 11.891-26.5 26.5-26.5s26.5 11.891 26.5 26.5c0 1.469-.129 2.93-.371 4.352H66.75L65.559 32.75a.994.994 0 0 0-.961-.942l-9.2-.308h-.03a1 1 0 0 0-1 .949l-1.173 21.719h-3.36v-5.762c0-.351-.179-.672-.48-.86-.3-.179-.671-.19-.98-.03l-11.441 5.988v-5.11c0-.351-.18-.671-.48-.859a1.008 1.008 0 0 0-.981-.031l-11.691 6.12a25.496 25.496 0 0 1-.281-3.827zm42.191 21.34A26.042 26.042 0 0 1 54.019 76L56.3 33.53l7.309.25 2.078 37.38zM34.929 50.058v5.11c0 .351.18.671.48.859a.979.979 0 0 0 .98.031l11.442-5.988v5.11c0 .55.45 1 1 1h4.262l-1.078 20.058c-.641.05-1.29.09-2.012.09-12.38 0-23.102-8.629-25.81-20.629l10.739-5.629zm32.68 19.531l-.75-13.422h8.84a26.345 26.345 0 0 1-8.09 13.422z"></path><path d="M40 42.289c2.969 0 5.39-2.422 5.39-5.39s-2.42-5.392-5.39-5.392-5.39 2.422-5.39 5.39S37.03 42.29 40 42.29zm0-8.79a3.392 3.392 0 0 1 0 6.781 3.39 3.39 0 0 1 0-6.78z"></path></g></g></g></svg>