<svg xmlns="http://www.w3.org/2000/svg" viewBox="328 328 3439.96 1096.76"><path fill="#1d6cf0" d="M1430.185 842.606q32.39 32.613 90.468 32.613c38.644 0 68.725-10.871 90.17-32.613 21.518-21.742 32.24-52.94 32.24-93.446V591.084h-51.228v156.065q0 82.426-70.81 82.426-71.257 0-71.257-82.426V591.084h-51.973V749.16c0 40.505 10.797 71.704 32.39 93.446m574.6-251.522h-51.6V780.73l-154.429-189.646h-42.813v280.114h51.6V681.55l154.427 189.647h42.814Zm115.261 0v280.114h52.047V591.084Z" class="text"/><path fill="#f3f7fc" d="M2276.398 864.142c20.104 6.18 41.027 9.233 62.62 9.233 24.571 0 45.345-3.723 62.396-11.244 17.126-7.446 29.858-17.423 38.272-30.007 8.34-12.509 12.584-26.507 12.584-41.995 0-18.167-4.766-32.538-14.222-43.26-9.456-10.648-20.848-18.54-34.176-23.752-13.403-5.213-30.454-10.201-51.228-15.041-15.19-3.723-27.252-7.074-36.038-9.978-8.786-2.978-16.083-6.924-21.817-11.988-5.733-5.063-8.562-11.615-8.562-19.657 0-11.466 4.988-20.625 14.966-27.624 9.977-6.925 25.316-10.35 45.792-10.35q18.876 0 38.868 5.585c13.328 3.723 26.135 9.233 38.42 16.38l16.381-40.356c-11.988-8.042-26.284-14.147-42.814-18.466-16.53-4.244-33.357-6.403-50.408-6.403-24.572 0-45.271 3.723-62.248 11.243-16.902 7.446-29.635 17.498-37.974 30.23-8.414 12.658-12.658 26.731-12.658 42.218 0 18.392 4.765 32.986 14.222 43.782 9.456 10.797 20.848 18.764 34.027 23.827q19.77 7.595 51.824 15.19c15.19 3.723 27.177 7.073 36.038 9.977 8.786 2.979 16.009 7 21.742 12.211 5.733 5.213 8.637 11.84 8.637 19.807 0 10.945-5.138 19.731-15.413 26.432-10.275 6.702-25.837 9.978-46.611 9.978-16.828 0-33.581-2.83-50.185-8.563-16.68-5.733-30.752-13.18-42.219-22.189l-18.019 40.357c11.69 10.127 27.625 18.317 47.803 24.423m320.322-230.897v236.109h52.047v-236.11h92.776V589.24H2503.87v44.006Zm273.71 221.515c22.934 12.36 48.697 18.615 77.215 18.615 28.592 0 54.28-6.255 77.214-18.615 23.007-12.435 40.952-29.56 54.057-51.451 13.03-21.891 19.582-46.537 19.582-74.012s-6.552-52.122-19.582-74.013c-13.105-21.89-31.05-39.016-54.057-51.45-22.934-12.36-48.622-18.615-77.214-18.615-28.518 0-54.28 6.254-77.214 18.614q-34.4 18.652-54.057 51.6c-13.03 22.04-19.583 46.686-19.583 73.864 0 27.177 6.552 51.823 19.583 73.863q19.657 32.947 54.057 51.6m127.623-39.612c-14.891 8.414-31.72 12.583-50.408 12.583-18.69 0-35.443-4.17-50.409-12.583s-26.656-20.179-35.219-35.22c-8.563-15.115-12.807-31.942-12.807-50.631 0-18.69 4.244-35.517 12.807-50.632 8.563-15.041 20.253-26.806 35.22-35.22 14.965-8.413 31.719-12.583 50.408-12.583s35.517 4.17 50.408 12.584c14.967 8.413 26.731 20.178 35.22 35.219 8.562 15.115 12.806 31.942 12.806 50.632s-4.244 35.516-12.807 50.632c-8.488 15.04-20.252 26.805-35.219 35.219m444.594-225.909h-51.6v189.647L3236.545 589.24h-42.814v280.115h51.675V679.707l154.427 189.647h42.814Zm325.311 236.482h-158.076v-77.214h135.292v-42.814h-135.292v-72.82h152.492v-43.634H3557.91v280.115h210.048Z" class="text"/><path fill="#cba15a" d="M1457.958 1194.32c18.764 10.275 39.836 15.487 63.216 15.487 18.168 0 34.92-3.127 50.185-9.382 15.19-6.18 28.145-15.338 38.793-27.326l-21.667-20.997c-17.796 18.689-39.687 27.996-65.673 27.996-17.35 0-32.985-3.872-46.984-11.69-14.072-7.744-25.018-18.466-32.91-32.166-7.893-13.626-11.84-28.965-11.84-45.792 0-16.903 3.947-32.241 11.84-45.867 7.892-13.7 18.838-24.423 32.91-32.166 13.999-7.819 29.635-11.69 46.984-11.69q39.314 0 65.673 27.698l21.667-21.072c-10.648-11.987-23.529-21.071-38.644-27.177q-22.673-9.158-50.036-9.158c-23.306 0-44.452 5.212-63.365 15.487-18.912 10.35-33.655 24.571-44.303 42.74-10.722 18.093-16.009 38.495-16.009 61.205 0 22.635 5.287 43.037 16.009 61.13 10.648 18.168 25.39 32.39 44.154 42.74m376.315-45.57 25.689 58.377h34.995l-106.03-233.429h-33.059l-105.657 233.429h34.325l25.689-58.376Zm-11.69-26.655h-100.668l50.334-114.37Zm302.824-126.73c-17.348-14.444-41.175-21.667-71.406-21.667h-90.988v233.429h33.283v-70.662H2054c30.23 0 54.058-7.222 71.406-21.742 17.35-14.445 25.987-34.325 25.987-59.641 0-25.39-8.638-45.271-25.987-59.716m-24.05 98.584c-11.094 8.935-27.252 13.477-48.324 13.477h-56.737v-104.689h56.737c21.072 0 37.23 4.468 48.324 13.477s16.68 21.965 16.68 38.868c0 16.902-5.585 29.858-16.68 38.867m132.388-120.25v233.428h33.358V973.698Zm183.095 29.038v204.39h32.985v-204.39h80.043v-29.039h-193.072v29.039Zm319.8 146.014 25.689 58.376h34.995l-106.03-233.429h-33.059l-105.657 233.429h34.326l25.688-58.376Zm-11.69-26.656h-100.743l50.41-114.37Zm140.355-148.397v233.429h159.79v-29.04h-126.432V973.699Z" class="text"/><path fill="#cba15a" d="M1278.085 328v1096.764h-18.4V328z"/><g fill="#1d6cf0" class="8DDm4GUig"><path d="m1069.908 807.55-52.591-6.675a320.5 320.5 0 0 0-40.551-98.752l32.149-41.593a8.22 8.22 0 0 0-.635-10.746l-81.981-81.981a8.084 8.084 0 0 0-10.746-.635l-41.194 31.831a319.5 319.5 0 0 0-99.306-41.34l-6.586-51.363a8.076 8.076 0 0 0-8.043-7.082H644.576c-4.071 0-7.572 3.012-8.044 7.082l-6.586 51.363a319.1 319.1 0 0 0-99.314 41.34l-41.185-31.831a8.22 8.22 0 0 0-10.747.635l-81.98 81.98a8.084 8.084 0 0 0-.636 10.747l32.158 41.601a319 319 0 0 0-40.551 98.735l-52.6 6.676a8.076 8.076 0 0 0-7.091 8.044v115.848c0 4.07 3.012 7.57 7.083 8.051l53.34 6.839c8.142 34.502 21.819 67.254 40.796 97.368l-33.2 42.903c-2.507 3.24-2.198 7.816.635 10.746l81.981 81.982c2.93 2.93 7.506 3.175 10.746.635l43.311-33.542a318.7 318.7 0 0 0 96.814 39.973l6.928 54.464c.489 4.07 3.981 7.1 8.052 7.1h115.848c4.07 0 7.571-3.021 8.043-7.092l6.937-54.48a318.4 318.4 0 0 0 96.798-39.973l43.31 33.55c3.257 2.515 7.832 2.198 10.755-.635l81.98-81.982c2.932-2.93 3.176-7.506.636-10.746l-33.2-42.903a319.6 319.6 0 0 0 40.804-97.368l53.324-6.839a8.076 8.076 0 0 0 7.099-8.051V815.602c0-4.07-3.02-7.571-7.091-8.044zm-9.191 116.809-51.867 6.586a8.14 8.14 0 0 0-6.936 6.35 304.1 304.1 0 0 1-42.904 102.407 8.18 8.18 0 0 0 .423 9.444l32.312 41.845-71.804 71.805-42.171-32.646a8.035 8.035 0 0 0-9.355-.423 305.5 305.5 0 0 1-101.861 42.106 8.035 8.035 0 0 0-6.358 6.936l-6.741 53.08h-101.52l-6.733-53.08a8.16 8.16 0 0 0-6.366-6.936 301.9 301.9 0 0 1-101.862-42.106 8.03 8.03 0 0 0-9.346.415l-42.17 32.662L413.652 1091l32.312-41.854a8.18 8.18 0 0 0 .407-9.444 301.7 301.7 0 0 1-42.896-102.399c-.732-3.337-3.5-5.943-6.936-6.358l-51.859-6.586V822.847l51.126-6.512a8.08 8.08 0 0 0 6.937-6.432c7.57-36.887 21.98-71.805 42.578-103.8a8.01 8.01 0 0 0-.407-9.345l-31.262-40.453 71.804-71.805 40.071 31.001a8.02 8.02 0 0 0 9.444.326 303.1 303.1 0 0 1 104.287-43.482c3.428-.732 5.943-3.5 6.424-6.936l6.35-49.986h101.52l6.358 49.986a8.14 8.14 0 0 0 6.431 6.936 303.2 303.2 0 0 1 104.272 43.474 8.34 8.34 0 0 0 9.443-.326l40.07-31.001 71.806 71.805-31.262 40.453a8.035 8.035 0 0 0-.407 9.346 302.8 302.8 0 0 1 42.578 103.799c.732 3.436 3.5 6.008 6.936 6.431l51.134 6.513v101.512z"/><path d="M702.508 640.08c-127.905 0-232.022 104.116-232.022 232.021a230.3 230.3 0 0 0 4.477 45.102c21.249 108.277 117.013 186.92 227.545 186.92 9.036 0 17.259-.472 24.895-1.465a229.17 229.17 0 0 0 116.076-46.486c44.94-34.445 75.631-83.772 86.467-138.969a231.3 231.3 0 0 0 4.478-45.191c0-127.905-104.109-232.022-232.022-232.022zM486.768 872.1c0-118.933 96.806-215.74 215.74-215.74s215.74 96.807 215.74 215.74c0 11.96-1.05 23.854-3.021 35.43H838.87l-9.696-174.399a8.09 8.09 0 0 0-7.823-7.669l-74.899-2.507h-.244a8.14 8.14 0 0 0-8.14 7.726l-9.55 176.817h-27.355v-46.91c0-2.857-1.457-5.47-3.907-7a8.21 8.21 0 0 0-7.979-.245l-93.142 48.75v-41.602c0-2.858-1.466-5.463-3.908-6.993a8.2 8.2 0 0 0-7.986-.253l-95.178 49.824a207.6 207.6 0 0 1-2.288-31.156zm343.482 173.732a212 212 0 0 1-95.023 39.403l18.57-345.754 59.503 2.036 16.917 304.315zM579.813 874.039v41.6c0 2.858 1.465 5.464 3.908 6.994a7.97 7.97 0 0 0 7.978.253l93.15-48.75v41.602c0 4.477 3.664 8.14 8.142 8.14h34.697l-8.776 163.295c-5.218.407-10.502.733-16.38.733-100.787 0-188.076-70.25-210.122-167.943l87.427-45.826zm266.052 159.004-6.106-109.27h71.967a214.48 214.48 0 0 1-65.861 109.27"/><path d="M621.097 810.79c24.17 0 43.88-19.717 43.88-43.88s-19.701-43.897-43.88-43.897-43.881 19.718-43.881 43.88 19.701 43.906 43.88 43.906zm0-71.56a27.615 27.615 0 0 1 0 55.205 27.598 27.598 0 0 1 0-55.197z"/></g></svg>
