<svg xmlns="http://www.w3.org/2000/svg" viewBox="0 0 1200 820" fill="none">
  <defs>
    <linearGradient id="bg" x1="0" x2="1200" y1="0" y2="820" gradientUnits="userSpaceOnUse">
      <stop stop-color="#0F1823"/>
      <stop offset="1" stop-color="#081018"/>
    </linearGradient>
    <linearGradient id="a" x1="0" x2="1" y1="0" y2="1">
      <stop stop-color="#1D6CF0"/>
      <stop offset="1" stop-color="#4A87F7"/>
    </linearGradient>
    <linearGradient id="b" x1="0" x2="1" y1="0" y2="1">
      <stop stop-color="#CBA15A"/>
      <stop offset="1" stop-color="#F0D29A"/>
    </linearGradient>
  </defs>
  <rect width="1200" height="820" rx="32" fill="url(#bg)"/>
  <rect x="34" y="34" width="1132" height="72" rx="22" fill="rgba(255,255,255,0.06)" stroke="rgba(255,255,255,0.1)"/>
  <rect x="64" y="56" width="220" height="28" rx="14" fill="url(#a)" opacity=".9"/>
  <rect x="886" y="52" width="120" height="36" rx="18" fill="rgba(255,255,255,0.08)"/>
  <rect x="1022" y="52" width="114" height="36" rx="18" fill="url(#a)"/>
  <rect x="34" y="132" width="268" height="154" rx="28" fill="rgba(255,255,255,0.06)" stroke="rgba(255,255,255,0.1)"/>
  <rect x="322" y="132" width="268" height="154" rx="28" fill="rgba(255,255,255,0.06)" stroke="rgba(255,255,255,0.1)"/>
  <rect x="610" y="132" width="268" height="154" rx="28" fill="rgba(255,255,255,0.06)" stroke="rgba(255,255,255,0.1)"/>
  <rect x="898" y="132" width="268" height="154" rx="28" fill="rgba(255,255,255,0.06)" stroke="rgba(255,255,255,0.1)"/>
  <rect x="66" y="178" width="92" height="16" rx="8" fill="rgba(255,255,255,0.22)"/>
  <rect x="66" y="210" width="122" height="42" rx="12" fill="url(#a)"/>
  <rect x="354" y="178" width="92" height="16" rx="8" fill="rgba(255,255,255,0.22)"/>
  <rect x="354" y="210" width="122" height="42" rx="12" fill="url(#b)"/>
  <rect x="642" y="178" width="92" height="16" rx="8" fill="rgba(255,255,255,0.22)"/>
  <rect x="642" y="210" width="122" height="42" rx="12" fill="url(#a)"/>
  <rect x="930" y="178" width="92" height="16" rx="8" fill="rgba(255,255,255,0.22)"/>
  <rect x="930" y="210" width="122" height="42" rx="12" fill="url(#a)"/>
  <rect x="34" y="312" width="1132" height="474" rx="28" fill="rgba(255,255,255,0.06)" stroke="rgba(255,255,255,0.1)"/>
  <rect x="64" y="346" width="980" height="18" rx="9" fill="rgba(255,255,255,0.14)"/>
  <rect x="1068" y="336" width="68" height="38" rx="19" fill="url(#b)"/>
  <g opacity=".95">
    <rect x="64" y="404" width="1040" height="64" rx="18" fill="rgba(255,255,255,0.03)"/>
    <rect x="84" y="426" width="110" height="14" rx="7" fill="rgba(255,255,255,0.2)"/>
    <rect x="236" y="420" width="220" height="28" rx="14" fill="rgba(255,255,255,0.14)"/>
    <rect x="510" y="420" width="110" height="28" rx="14" fill="rgba(255,255,255,0.14)"/>
    <rect x="658" y="420" width="160" height="28" rx="14" fill="rgba(255,255,255,0.14)"/>
    <rect x="846" y="420" width="120" height="28" rx="14" fill="url(#a)" opacity=".9"/>
    <rect x="992" y="420" width="92" height="28" rx="14" fill="rgba(255,255,255,0.14)"/>
  </g>
  <g opacity=".95">
    <rect x="64" y="486" width="1040" height="64" rx="18" fill="rgba(255,255,255,0.03)"/>
    <rect x="84" y="508" width="110" height="14" rx="7" fill="rgba(255,255,255,0.2)"/>
    <rect x="236" y="502" width="220" height="28" rx="14" fill="rgba(255,255,255,0.14)"/>
    <rect x="510" y="502" width="110" height="28" rx="14" fill="rgba(255,255,255,0.14)"/>
    <rect x="658" y="502" width="160" height="28" rx="14" fill="rgba(255,255,255,0.14)"/>
    <rect x="846" y="502" width="120" height="28" rx="14" fill="url(#b)" opacity=".9"/>
    <rect x="992" y="502" width="92" height="28" rx="14" fill="rgba(255,255,255,0.14)"/>
  </g>
  <g opacity=".95">
    <rect x="64" y="568" width="1040" height="64" rx="18" fill="rgba(255,255,255,0.03)"/>
    <rect x="84" y="590" width="110" height="14" rx="7" fill="rgba(255,255,255,0.2)"/>
    <rect x="236" y="584" width="220" height="28" rx="14" fill="rgba(255,255,255,0.14)"/>
    <rect x="510" y="584" width="110" height="28" rx="14" fill="rgba(255,255,255,0.14)"/>
    <rect x="658" y="584" width="160" height="28" rx="14" fill="rgba(255,255,255,0.14)"/>
    <rect x="846" y="584" width="120" height="28" rx="14" fill="url(#a)" opacity=".9"/>
    <rect x="992" y="584" width="92" height="28" rx="14" fill="rgba(255,255,255,0.14)"/>
  </g>
</svg>
