<svg xmlns="http://www.w3.org/2000/svg" width="1200" height="900" viewBox="0 0 1200 900" fill="none">
  <rect width="1200" height="900" rx="40" fill="#0A121B"/>
  <circle cx="980" cy="100" r="180" fill="#1D6CF0" fill-opacity="0.18"/>
  <circle cx="180" cy="760" r="220" fill="#CBA15A" fill-opacity="0.12"/>
  <rect x="110" y="130" width="980" height="640" rx="28" fill="#111925" stroke="#2C394A"/>
  <rect x="170" y="510" width="160" height="180" rx="18" fill="#1B2430" stroke="#36465A"/>
  <rect x="360" y="430" width="160" height="260" rx="18" fill="#1B2430" stroke="#36465A"/>
  <rect x="550" y="330" width="160" height="360" rx="18" fill="#1B2430" stroke="#36465A"/>
  <rect x="740" y="250" width="160" height="440" rx="18" fill="#1B2430" stroke="#36465A"/>
  <rect x="930" y="390" width="90" height="300" rx="18" fill="#1B2430" stroke="#36465A"/>
  <path d="M170 510L250 455L330 510" fill="#CBA15A" fill-opacity="0.28"/>
  <path d="M360 430L440 380L520 430" fill="#CBA15A" fill-opacity="0.24"/>
  <path d="M550 330L630 275L710 330" fill="#CBA15A" fill-opacity="0.20"/>
  <path d="M740 250L820 190L900 250" fill="#CBA15A" fill-opacity="0.28"/>
  <rect x="205" y="560" width="90" height="90" rx="12" fill="#1D6CF0" fill-opacity="0.35"/>
  <rect x="395" y="485" width="90" height="90" rx="12" fill="#1D6CF0" fill-opacity="0.35"/>
  <rect x="585" y="390" width="90" height="90" rx="12" fill="#1D6CF0" fill-opacity="0.35"/>
  <rect x="775" y="315" width="90" height="90" rx="12" fill="#1D6CF0" fill-opacity="0.35"/>
  <path d="M170 735H1030" stroke="#334255" stroke-width="4" stroke-linecap="round"/>
</svg>
