<svg xmlns="http://www.w3.org/2000/svg" width="1400" height="1100" viewBox="0 0 1400 1100" fill="none">
  <rect width="1400" height="1100" rx="48" fill="#09111A"/>
  <circle cx="1050" cy="160" r="210" fill="#1D6CF0" fill-opacity="0.18"/>
  <circle cx="250" cy="920" r="260" fill="#CBA15A" fill-opacity="0.14"/>
  <rect x="72" y="94" width="1256" height="912" rx="34" fill="url(#g1)" stroke="rgba(255,255,255,0.08)"/>
  <path d="M160 770L330 620L500 680L670 480L840 520L1010 340L1180 390V870H160V770Z" fill="#1D6CF0" fill-opacity="0.14"/>
  <path d="M190 840H1170" stroke="#314154" stroke-width="4" stroke-linecap="round"/>
  <rect x="210" y="600" width="320" height="240" rx="18" fill="#121A24" stroke="#324152"/>
  <rect x="245" y="640" width="70" height="160" rx="8" fill="#1D6CF0" fill-opacity="0.35"/>
  <rect x="335" y="690" width="70" height="110" rx="8" fill="#1D6CF0" fill-opacity="0.28"/>
  <rect x="425" y="650" width="70" height="150" rx="8" fill="#1D6CF0" fill-opacity="0.45"/>
  <rect x="560" y="500" width="230" height="340" rx="18" fill="#121A24" stroke="#324152"/>
  <rect x="610" y="545" width="52" height="52" rx="8" fill="#CBA15A" fill-opacity="0.38"/>
  <rect x="680" y="545" width="52" height="52" rx="8" fill="#CBA15A" fill-opacity="0.22"/>
  <rect x="610" y="620" width="52" height="52" rx="8" fill="#CBA15A" fill-opacity="0.24"/>
  <rect x="680" y="620" width="52" height="52" rx="8" fill="#CBA15A" fill-opacity="0.42"/>
  <rect x="610" y="695" width="122" height="105" rx="10" fill="#0E141C"/>
  <path d="M820 370H1100V840H820V370Z" fill="#111925" stroke="#334052" rx="18"/>
  <rect x="860" y="420" width="200" height="22" rx="11" fill="#1D6CF0" fill-opacity="0.56"/>
  <rect x="860" y="470" width="160" height="16" rx="8" fill="#8EA7CA" fill-opacity="0.45"/>
  <rect x="860" y="514" width="182" height="16" rx="8" fill="#8EA7CA" fill-opacity="0.45"/>
  <rect x="860" y="558" width="132" height="16" rx="8" fill="#8EA7CA" fill-opacity="0.45"/>
  <rect x="860" y="620" width="200" height="130" rx="20" fill="#0E141C" stroke="#2C394A"/>
  <path d="M900 704L940 666L975 690L1025 640" stroke="#CBA15A" stroke-width="6" stroke-linecap="round" stroke-linejoin="round"/>
  <circle cx="900" cy="704" r="7" fill="#CBA15A"/>
  <circle cx="940" cy="666" r="7" fill="#CBA15A"/>
  <circle cx="975" cy="690" r="7" fill="#CBA15A"/>
  <circle cx="1025" cy="640" r="7" fill="#CBA15A"/>
  <rect x="885" y="116" width="300" height="150" rx="26" fill="#101722" stroke="#2E3C4D"/>
  <rect x="920" y="150" width="128" height="16" rx="8" fill="#8EA7CA" fill-opacity="0.55"/>
  <rect x="920" y="182" width="220" height="22" rx="11" fill="#1D6CF0" fill-opacity="0.58"/>
  <rect x="920" y="218" width="155" height="16" rx="8" fill="#CBA15A" fill-opacity="0.48"/>
  <defs>
    <linearGradient id="g1" x1="700" y1="94" x2="700" y2="1006" gradientUnits="userSpaceOnUse">
      <stop stop-color="#111924"/>
      <stop offset="1" stop-color="#0C121A"/>
    </linearGradient>
  </defs>
</svg>
